# xmcd
# Track frame offsets:
# 150
# 11672
# 26060
# 36863
# 47670
# 62949
# 75704
# 83593
# 92768
# 111350
# 123367
# 138379
# 148313
# 159344
# 171904
# 184121
# 202090
# 214437
# 231333
# 243544
#
# Disc length: 3413 seconds
# Revision: 0
# Processed by: cddbd v1.5.1PL0 Copyright (c) Steve Scherf et al.
# Submitted via: VisiTrax 2.9.10.220 - For more info visit www.synapsa.com
#
DISCID=260d5314
DTITLE=Sydney Devine - Greatest Hits Collections - CD2
DYEAR=2004
DGENRE=Country
TTITLE0=Laura What's He Got
TTITLE1=A Letter Edged in Black
TTITLE2=Ain't That A Shame
TTITLE3=A Broken Engagement
TTITLE4=Fraulein
TTITLE5=I Ain't Cryin' Mister
TTITLE6=Do What You Do Do Well
TTITLE7=No One Will Ever Know
TTITLE8=Maggie
TTITLE9=Little Arrows
TTITLE10=My Son Calls Another Man Daddy
TTITLE11=Have A Drink On Me
TTITLE12=She Wears My Ring
TTITLE13=Long Black Limousine
TTITLE14=May The Bird of Paradise Fly Up Your Nose
TTITLE15=Nobody's Child
TTITLE16=Rose Marie
TTITLE17=Old Shep
TTITLE18=Send Me The Pillow
TTITLE19=The Wild Side of Life
EXTD=
EXTT0=
EXTT1=
EXTT2=
EXTT3=
EXTT4=
EXTT5=
EXTT6=
EXTT7=
EXTT8=
EXTT9=
EXTT10=
EXTT11=
EXTT12=
EXTT13=
EXTT14=
EXTT15=
EXTT16=
EXTT17=
EXTT18=
EXTT19=
PLAYORDER=
